<?xml version="1.0" standalone="no"?>
<!DOCTYPE svg PUBLIC "-//W3C//DTD SVG 20010904//EN"
 "http://www.w3.org/TR/2001/REC-SVG-20010904/DTD/svg10.dtd">
<svg version="1.0" xmlns="http://www.w3.org/2000/svg"
 width="600.000000pt" height="600.000000pt" viewBox="0 0 600.000000 600.000000"
 preserveAspectRatio="xMidYMid meet">
<metadata>
Created by potrace 1.11, written by Peter Selinger 2001-2013
</metadata>
<g transform="translate(0.000000,600.000000) scale(0.100000,-0.100000)"
fill="#000000" stroke="none">
<path d="M2899 5703 c-63 -36 -127 -73 -144 -83 -16 -9 -122 -70 -235 -135
-323 -186 -463 -267 -495 -285 -108 -62 -142 -82 -155 -91 -8 -5 -27 -15 -42
-22 -16 -6 -28 -15 -28 -19 0 -4 -4 -8 -9 -8 -4 0 -86 -46 -182 -101 -96 -56
-192 -111 -214 -123 -104 -58 -155 -89 -161 -97 -3 -5 -10 -7 -15 -4 -5 4 -9
2 -9 -3 0 -6 -12 -15 -27 -21 -16 -6 -46 -22 -68 -36 -22 -14 -49 -30 -60 -35
-11 -5 -38 -21 -60 -34 -22 -14 -51 -31 -65 -39 -14 -7 -43 -24 -65 -36 -22
-13 -65 -37 -95 -54 -30 -17 -56 -34 -58 -39 -2 -4 -8 -8 -13 -8 -5 0 -26 -11
-47 -24 l-37 -23 1 -1364 c1 -750 2 -1373 3 -1385 1 -12 14 -27 34 -37 17 -9
52 -29 77 -43 25 -15 59 -35 75 -44 17 -9 102 -59 190 -110 88 -51 185 -106
215 -123 30 -17 57 -33 60 -36 3 -4 34 -21 70 -40 36 -18 72 -40 81 -47 8 -8
18 -14 22 -14 3 0 71 -38 151 -85 80 -47 150 -85 156 -85 5 0 10 -4 10 -10 0
-5 4 -10 9 -10 5 0 86 -45 181 -100 94 -55 175 -100 180 -100 6 0 10 -4 10
-10 0 -5 4 -10 10 -10 5 0 39 -18 75 -40 36 -22 69 -40 74 -40 5 0 14 -7 21
-15 7 -8 21 -15 30 -15 10 0 20 -4 22 -8 2 -5 23 -20 48 -34 62 -35 87 -49
320 -184 113 -66 222 -127 241 -138 l36 -19 86 52 c48 28 118 67 155 88 37 20
78 45 91 55 13 10 27 18 32 18 4 0 29 13 56 29 26 16 100 59 163 95 63 37 122
71 130 76 8 5 52 31 98 57 46 27 91 53 100 58 9 6 51 29 92 53 41 23 82 47 90
52 61 39 191 110 199 110 6 0 11 5 11 10 0 6 4 10 9 10 5 0 54 26 108 58 54
32 105 61 113 65 8 4 33 18 55 31 22 14 51 31 65 39 14 7 41 23 60 34 181 105
220 128 257 148 22 13 101 58 175 101 73 42 158 91 188 109 l55 31 3 1386 2
1386 -87 50 c-49 27 -144 82 -213 122 -69 40 -145 84 -170 98 -25 14 -62 36
-82 49 -21 12 -40 23 -44 23 -3 0 -18 8 -32 18 -15 11 -52 33 -82 49 -54 30
-245 140 -348 202 -29 17 -55 31 -58 31 -2 0 -22 11 -44 25 l-40 25 0 -1382 0
-1383 -21 -14 c-12 -7 -38 -22 -58 -33 -20 -12 -49 -29 -66 -39 -16 -11 -37
-22 -45 -26 -8 -4 -74 -42 -148 -85 -73 -43 -137 -78 -142 -78 -6 0 -10 -4
-10 -10 0 -5 -4 -10 -10 -10 -8 0 -184 -100 -285 -162 -16 -10 -37 -21 -45
-25 -8 -4 -42 -23 -75 -43 -33 -20 -67 -39 -75 -43 -8 -4 -28 -15 -45 -25 -16
-10 -52 -31 -80 -46 -27 -15 -54 -32 -59 -37 -20 -18 -57 -8 -138 40 -99 59
-514 300 -600 350 -94 53 -145 82 -158 91 -8 5 -78 45 -155 89 -77 44 -149 86
-160 94 -19 14 -19 32 -20 702 l0 687 45 26 c25 14 53 32 64 41 10 9 20 15 22
13 2 -1 14 4 27 12 44 27 459 266 463 266 2 0 33 18 69 40 36 22 67 40 70 40
9 0 110 64 113 72 2 5 7 6 12 3 4 -3 13 2 20 10 7 8 17 15 21 15 5 0 68 34
139 76 125 73 130 75 157 62 43 -22 124 -68 165 -95 21 -12 40 -23 43 -23 4 0
25 -13 48 -28 23 -15 67 -41 97 -57 30 -16 91 -50 135 -77 43 -26 81 -46 83
-43 5 5 6 1375 1 1379 -4 3 -363 211 -426 248 -18 10 -49 27 -68 38 -19 11
-50 29 -69 39 l-34 19 -113 -65z"/>
<path d="M2915 3638 c-55 -32 -107 -61 -115 -65 -8 -3 -26 -14 -40 -23 -14
-10 -49 -30 -78 -46 -63 -34 -62 -34 -178 -102 l-91 -54 1 -345 1 -346 98 -59
c55 -32 101 -58 104 -58 3 0 17 -8 31 -19 26 -18 69 -42 182 -104 30 -17 67
-38 82 -49 14 -10 29 -18 33 -18 4 0 20 -9 36 -21 l29 -20 49 28 c27 15 84 48
127 72 44 25 81 47 84 50 3 4 24 15 47 26 24 11 43 23 43 28 0 4 4 7 9 7 4 0
46 22 92 50 46 27 99 56 117 64 37 17 33 -33 33 423 0 156 -2 287 -5 291 -4 8
-251 153 -384 227 -20 12 -75 44 -122 71 l-85 50 -100 -58z"/>
</g>
</svg>
